<svg width="64" height="64" viewBox="0 0 64 64" fill="none" xmlns="http://www.w3.org/2000/svg">
<path d="M32 64C14.3673 64 0 49.6327 0 32C0 14.3673 14.3673 0 32 0C49.6327 0 64 14.3673 64 32C64 49.6327 49.6327 64 32 64Z" fill="#445689"/>
<path d="M23.8496 17.7486C26.3225 16.1301 29.2964 15.1862 32.4955 15.1862C39.5906 15.1862 45.5767 19.8284 47.4499 26.1757" stroke="#D7EFA3" stroke-width="3.78395" stroke-linecap="round" stroke-linejoin="round"/>
<path d="M48.0583 49V35.4745" stroke="#D7EFA3" stroke-width="3.78395" stroke-linecap="round" stroke-linejoin="round"/>
<path d="M16.9329 49V30.4024C16.9329 28.624 17.2449 26.9168 17.8184 25.3304" stroke="#D7EFA3" stroke-width="3.78395" stroke-linecap="round" stroke-linejoin="round"/>
<path d="M42.8709 49V30.9097C42.8709 25.0271 38.2257 20.2583 32.4957 20.2583C26.7657 20.2583 22.1206 25.0271 22.1206 30.9097V35.4745" stroke="#D7EFA3" stroke-width="3.78395" stroke-linecap="round" stroke-linejoin="round"/>
<path d="M22.1206 49V42.2372" stroke="#D7EFA3" stroke-width="3.78395" stroke-linecap="round" stroke-linejoin="round"/>
<path d="M27.3079 49V30.656C27.3079 27.7147 29.6303 25.3304 32.4954 25.3304C33.9917 25.3304 35.3399 25.9807 36.2868 27.021" stroke="#D7EFA3" stroke-width="3.78395" stroke-linecap="round" stroke-linejoin="round"/>
<path d="M37.6829 49V35.4745" stroke="#D7EFA3" stroke-width="3.78395" stroke-linecap="round" stroke-linejoin="round"/>
<path d="M32.4956 49V43.0826" stroke="#D7EFA3" stroke-width="3.78395" stroke-linecap="round" stroke-linejoin="round"/>
<path d="M32.4956 30.4024V35.4745" stroke="#D7EFA3" stroke-width="3.78395" stroke-linecap="round" stroke-linejoin="round"/>
</svg>
