<svg width="64" height="64" viewBox="0 0 64 64" fill="none" xmlns="http://www.w3.org/2000/svg">
<path d="M32 64C14.3673 64 0 49.6327 0 32C0 14.3673 14.3673 0 32 0C49.6327 0 64 14.3673 64 32C64 49.6327 49.6327 64 32 64Z" fill="#445689"/>
<path d="M31.5 13C26.1375 13 21.75 17.9 21.75 23.9375C21.75 29.975 26.1375 34.875 31.5 34.875C36.8625 34.875 41.25 29.975 41.25 23.9375C41.25 17.9 36.8625 13 31.5 13ZM21.3112 34.875C16.1438 35.0938 12 38.9 12 43.625V48H51V43.625C51 38.9 46.905 35.0938 41.6888 34.875C39.0563 37.5438 35.4487 39.25 31.5 39.25C27.5513 39.25 23.9438 37.5438 21.3112 34.875Z" fill="#D7EFA3"/>
</svg>
